<svg width="180" height="180" viewBox="0 0 180 180" fill="none" xmlns="http://www.w3.org/2000/svg">
<rect width="180" height="180" rx="22" fill="#F1ECE1"/>
<path d="M90.4783 142.197C82.3177 142.197 74.994 141.099 68.5074 138.901C62.0208 136.704 56.4757 133.356 51.8723 128.858C47.3735 124.359 43.921 118.866 41.5146 112.379C39.2129 105.788 38.0621 98.0984 38.0621 89.3101C38.0621 80.3125 39.2652 72.4135 41.6716 65.6129C44.0779 58.8124 47.5305 53.0582 52.0293 48.3501C56.6327 43.6421 62.0208 40.1372 68.1935 37.8355C74.3663 35.4292 81.2191 34.226 88.752 34.226C94.7155 34.226 100.156 34.9584 105.073 36.4231C110.095 37.8878 114.437 40.0849 118.099 43.0144C121.761 45.8392 124.585 49.2917 126.573 53.372C128.666 57.3477 129.764 61.8988 129.869 67.0254L106.486 73.4597C106.486 69.1701 105.544 65.6653 103.661 62.9451C101.882 60.2249 99.5805 58.1847 96.7557 56.8246C94.0354 55.3599 91.0537 54.6275 87.8104 54.6275C85.1948 54.6275 82.4746 55.2029 79.6498 56.3538C76.9296 57.4 74.4186 59.2309 72.1169 61.8465C69.8152 64.3575 67.9843 67.7054 66.6242 71.8903C65.2641 76.0753 64.584 81.3064 64.584 87.5838C64.584 95.7444 65.7349 102.336 68.0366 107.358C70.3383 112.379 73.5293 116.094 77.6096 118.5C81.6899 120.802 86.1887 121.953 91.106 121.953C96.5464 121.953 100.731 120.802 103.661 118.5C106.695 116.094 108.84 113.112 110.095 109.555C111.351 105.997 112.031 102.388 112.135 98.7262L134.106 102.179C134.001 107.828 133.164 113.112 131.595 118.029C130.026 122.946 127.515 127.236 124.062 130.898C120.714 134.455 116.268 137.227 110.723 139.215C105.178 141.203 98.4296 142.197 90.4783 142.197Z" fill="black"/>
<circle cx="88.5909" cy="87.5909" r="11.1972" transform="rotate(28.2529 88.5909 87.5909)" fill="black" stroke="black" stroke-width="6.53846"/>
<circle cx="93.8914" cy="80.8914" r="5.82724" transform="rotate(28.2529 93.8914 80.8914)" fill="#F1ECE1"/>
</svg>
